<?xml version="1.0" standalone="no"?>
<!DOCTYPE svg PUBLIC "-//W3C//DTD SVG 20010904//EN"
 "http://www.w3.org/TR/2001/REC-SVG-20010904/DTD/svg10.dtd">
<svg version="1.0" xmlns="http://www.w3.org/2000/svg"
 width="600.000000pt" height="600.000000pt" viewBox="0 0 600.000000 600.000000"
 preserveAspectRatio="xMidYMid meet">

<g transform="translate(0.000000,600.000000) scale(0.100000,-0.100000)"
fill="#000000" stroke="none">
<path d="M2819 5486 c-4 -4 -51 -16 -105 -28 -200 -42 -219 -46 -206 -47 23
-2 2 -21 -24 -21 -13 0 -24 -4 -24 -10 0 -5 -6 -10 -12 -10 -7 0 -47 -18 -88
-40 -41 -22 -83 -43 -92 -46 -10 -4 -18 -14 -18 -23 -1 -9 -48 -48 -112 -91
-60 -41 -115 -82 -122 -90 -6 -8 -44 -44 -84 -80 -75 -65 -107 -105 -77 -94 8
4 15 3 15 0 0 -12 -53 -86 -61 -86 -13 0 -69 -103 -64 -118 3 -7 1 -11 -4 -8
-5 3 -20 -20 -35 -52 -14 -31 -37 -77 -51 -102 -27 -49 -63 -202 -69 -288 -2
-29 -6 -55 -10 -59 -3 -3 -6 -17 -6 -29 0 -13 -7 -27 -15 -32 -13 -7 -14 -14
-5 -37 8 -21 8 -30 -1 -35 -8 -6 -7 -9 2 -13 11 -4 11 -8 -3 -22 -13 -14 -14
-22 -6 -41 6 -13 15 -24 20 -24 5 0 4 -9 -1 -19 -16 -30 9 -45 39 -24 22 16
23 15 17 0 -6 -15 -4 -16 14 -7 11 6 25 9 32 6 7 -2 4 -5 -5 -5 -10 -1 -18 -8
-18 -17 0 -8 -4 -12 -10 -9 -5 3 -10 1 -10 -5 0 -7 -7 -10 -14 -7 -12 5 -14
-5 -10 -56 2 -34 5 -69 5 -79 0 -9 9 -24 20 -34 21 -19 26 -73 7 -92 -9 -9 -9
-12 0 -12 8 0 12 -21 12 -67 0 -41 5 -73 13 -82 14 -17 56 -155 63 -205 5 -44
14 -44 14 0 0 22 -11 78 -25 125 -14 46 -30 126 -37 176 -10 85 -10 95 7 113
10 11 27 20 37 20 26 0 49 -25 42 -44 -4 -9 -1 -16 6 -16 7 0 10 -7 6 -16 -7
-18 10 -54 25 -54 18 0 51 -37 40 -45 -6 -3 -16 -15 -21 -25 -9 -16 -8 -18 5
-13 15 5 15 2 2 -29 -13 -30 -23 -118 -18 -152 0 -5 10 1 21 14 11 13 20 18
20 13 0 -6 -7 -16 -16 -23 -25 -21 -36 -48 -22 -56 7 -5 8 -2 3 7 -6 11 -5 11
5 2 7 -6 13 -23 13 -37 0 -22 2 -24 25 -15 22 8 23 8 12 -6 -7 -8 -9 -15 -6
-15 4 0 2 -9 -4 -20 -7 -14 -7 -20 0 -20 5 0 10 5 10 10 0 6 4 10 9 10 12 0
43 -114 36 -132 -4 -10 9 -31 34 -55 49 -48 52 -60 10 -34 -31 19 -59 18 -59
-1 0 -7 4 -7 13 0 9 8 12 3 13 -21 2 -53 16 -119 23 -108 4 6 12 2 19 -9 7
-12 8 -20 2 -20 -6 0 -6 -10 1 -27 14 -35 17 -183 4 -203 -24 -37 -7 -127 22
-116 7 3 17 -3 22 -12 6 -9 11 -11 11 -5 0 13 43 -8 103 -50 42 -30 50 -37 66
-69 8 -16 18 -28 23 -28 5 0 6 4 3 10 -15 24 5 7 31 -27 19 -25 22 -35 11 -30
-9 3 3 -13 26 -36 23 -23 46 -42 51 -42 5 0 12 -10 17 -23 5 -13 5 -22 -1 -22
-6 0 -10 -5 -10 -11 0 -5 5 -7 12 -3 7 5 9 0 6 -14 -4 -14 2 -32 15 -49 11
-16 14 -22 7 -16 -19 18 -26 16 -26 -7 0 -15 7 -20 26 -20 33 0 50 -17 50 -50
0 -32 14 -55 29 -46 7 5 11 -2 12 -16 1 -22 2 -20 15 22 4 13 6 13 14 0 5 -9
5 -17 -1 -21 -13 -7 6 -59 22 -59 6 0 9 -9 6 -20 -7 -29 12 -25 23 5 8 22 13
24 30 15 22 -12 26 -26 8 -32 -7 -3 -6 -7 5 -11 12 -4 17 -1 17 10 0 13 2 13
16 2 14 -12 14 -14 0 -25 -9 -6 -16 -17 -16 -25 1 -10 5 -9 15 5 7 10 18 15
24 11 7 -3 11 2 11 14 0 12 4 21 8 21 13 0 7 -43 -6 -48 -21 -7 -13 -19 13
-19 14 0 25 3 25 7 0 5 13 2 28 -6 29 -14 127 -22 139 -11 3 4 1 7 -5 7 -7 0
-12 5 -12 11 0 6 9 8 23 3 12 -4 32 -7 45 -6 12 1 25 -5 28 -13 10 -26 27 -17
20 11 -5 18 -3 24 4 19 6 -4 25 -8 41 -9 29 -2 67 -26 41 -26 -7 0 -12 -5 -12
-11 0 -8 5 -8 15 1 8 7 15 9 15 5 0 -4 7 -2 15 5 8 6 19 9 24 5 6 -3 22 2 36
11 14 9 29 14 33 10 4 -4 -1 -12 -11 -17 -9 -6 -17 -14 -17 -20 0 -16 49 24
50 41 1 11 3 11 7 2 3 -7 -1 -20 -9 -29 -12 -15 -11 -15 10 -4 19 10 23 9 29
-6 6 -15 8 -14 13 7 3 14 16 30 29 37 13 6 26 15 30 20 3 4 17 17 30 28 21 18
24 18 18 2 -13 -34 24 -17 39 19 11 27 18 33 28 25 9 -8 18 -7 32 4 18 14 18
14 -3 15 -13 0 -23 5 -23 11 0 6 7 9 15 5 8 -3 21 1 29 9 8 8 19 15 24 15 13
0 35 46 28 58 -3 6 7 22 24 35 16 14 30 28 30 31 0 11 44 56 55 56 6 0 11 9
11 20 0 25 -5 25 -23 3 -8 -10 -7 -4 3 14 10 17 27 34 38 37 23 6 65 66 46 66
-6 0 -8 5 -5 10 4 6 11 8 16 5 12 -8 49 4 49 16 0 5 -9 4 -20 -3 -10 -7 -23
-8 -27 -4 -4 5 -2 11 5 13 10 4 10 8 2 18 -9 11 -6 14 17 12 25 -2 28 1 25 26
-2 15 1 27 7 27 6 0 12 -17 13 -37 l1 -38 4 35 c3 19 9 41 15 47 12 15 32 18
23 4 -3 -5 4 -12 15 -16 11 -3 20 -13 20 -22 0 -14 3 -13 21 3 22 19 22 19 10
-4 -7 -13 -10 -26 -8 -29 3 -2 11 6 18 19 7 12 18 28 25 33 19 14 34 95 27
141 -3 21 -14 58 -25 82 -24 58 -22 63 8 27 l26 -30 -21 42 c-12 23 -21 53
-21 66 0 21 4 23 31 19 25 -4 30 -2 23 9 -19 32 -14 46 17 47 45 1 49 12 6 12
-20 0 -38 5 -38 10 -2 13 -6 29 -9 33 -1 1 -3 10 -5 19 -2 11 2 15 12 11 13
-5 13 -3 3 16 -9 19 -9 26 4 40 22 24 20 34 -5 21 -32 -18 -35 -3 -5 21 15 12
25 27 22 35 -3 7 -1 16 4 19 10 6 11 20 10 88 0 22 4 36 10 32 5 -3 6 -13 3
-22 -4 -10 -2 -14 4 -10 6 4 14 1 17 -5 3 -7 3 4 -1 25 -4 32 -1 42 18 60 13
12 27 21 32 19 5 -1 6 2 2 8 -3 6 -11 8 -16 5 -5 -4 -9 3 -9 14 0 12 6 21 13
21 9 0 12 21 11 75 0 41 3 79 6 85 4 6 2 29 -4 51 -7 29 -7 48 2 71 10 29 9
36 -11 68 -23 34 -42 94 -26 85 4 -3 9 1 12 7 2 7 13 -5 25 -27 12 -22 21 -33
22 -25 0 9 -7 26 -16 38 -18 27 -9 43 34 61 31 14 88 84 73 89 -18 6 -13 18
21 53 17 19 45 63 61 97 28 60 29 69 23 140 -4 43 -9 106 -12 142 -6 84 -22
187 -34 208 -5 10 -19 40 -32 67 -35 77 -113 208 -137 229 -12 11 -21 25 -21
33 0 14 -78 111 -163 203 -23 25 -58 63 -78 85 -19 22 -58 58 -85 80 -66 54
-97 75 -54 36 19 -17 29 -31 23 -31 -7 0 -14 4 -17 9 -10 16 -147 94 -153 87
-4 -4 3 -9 15 -13 35 -9 25 -23 -16 -23 -30 0 -43 6 -62 30 -14 16 -30 29 -37
30 -6 0 -15 9 -18 21 -4 12 -16 30 -26 40 -10 10 -19 26 -19 35 0 8 -5 12 -11
8 -6 -3 -14 -2 -18 3 -12 19 -91 63 -113 63 -32 0 -91 23 -108 42 -8 9 -44 21
-80 28 -82 14 -223 24 -231 16z m141 -27 c0 -3 -31 -6 -70 -6 -38 0 -68 3 -65
7 5 8 135 7 135 -1z m125 -20 c12 -5 -3 -6 -35 -2 -30 3 -59 9 -64 13 -10 10
71 1 99 -11z m62 -395 c-3 -3 -12 -4 -19 -1 -8 3 -5 6 6 6 11 1 17 -2 13 -5z
m259 -399 c-7 -18 -2 -19 24 -2 17 10 22 9 30 -2 7 -12 11 -12 24 -2 13 11 16
11 16 0 0 -8 6 -5 14 7 12 15 17 17 27 7 7 -7 26 -13 41 -13 26 0 32 -8 29
-37 -2 -18 20 -27 30 -12 4 8 20 15 34 16 14 1 23 -2 20 -8 -4 -5 4 -9 15 -9
19 0 21 -4 16 -25 -7 -29 -1 -32 20 -10 20 20 30 19 38 -2 3 -10 9 -24 12 -32
4 -9 2 -11 -6 -6 -9 5 -10 3 -3 -11 5 -11 9 -34 8 -51 -2 -18 1 -30 6 -27 10
6 6 -95 -6 -140 -6 -21 -5 -27 4 -22 7 5 11 -3 11 -23 0 -23 -5 -31 -17 -31
-14 0 -15 -2 -4 -9 17 -11 16 -79 -1 -96 -3 -4 -3 -19 1 -33 5 -15 6 -33 3
-40 -2 -7 6 -41 17 -75 40 -116 41 -116 23 -126 -13 -7 -12 -10 6 -15 19 -6
29 -22 37 -60 1 -6 4 -18 8 -26 5 -14 24 -122 35 -200 8 -54 7 -271 -1 -305
-4 -16 -8 -36 -9 -42 -1 -7 -5 -13 -9 -13 -5 0 -6 -7 -3 -15 4 -8 2 -15 -3
-15 -9 0 -15 -30 -17 -82 -1 -16 -4 -28 -7 -28 -5 0 -18 -35 -34 -97 -4 -13
-11 -23 -16 -23 -5 0 -9 -12 -9 -26 0 -15 -4 -23 -10 -19 -7 4 -8 -3 -4 -22 7
-26 6 -27 -11 -13 -17 14 -18 14 -6 -8 12 -22 11 -23 -7 -13 -18 10 -20 8 -17
-14 1 -14 -1 -25 -5 -25 -5 0 -6 -8 -3 -19 3 -10 0 -22 -6 -25 -6 -4 -11 0
-11 8 0 9 -4 16 -9 16 -14 0 -21 -29 -10 -36 6 -3 1 -12 -11 -21 -17 -12 -19
-17 -9 -24 11 -6 10 -12 -4 -27 -9 -10 -14 -22 -10 -25 3 -4 -3 -7 -15 -7 -12
0 -22 5 -22 12 0 6 -3 9 -6 6 -3 -4 2 -20 11 -37 16 -32 9 -41 -14 -18 -12 10
-13 8 -7 -8 6 -16 5 -18 -5 -7 -20 19 -31 14 -19 -8 9 -16 8 -20 -5 -20 -9 0
-13 -4 -10 -10 3 -5 -1 -10 -9 -10 -9 0 -13 -6 -10 -15 3 -8 -1 -24 -10 -36
l-15 -22 -11 27 c-5 15 -10 38 -10 52 0 65 -78 162 -120 151 -11 -3 -24 1 -31
9 -7 8 -21 11 -35 8 -17 -4 -26 -1 -30 10 -3 9 -10 16 -16 16 -5 0 -6 -5 -2
-12 4 -6 -14 4 -40 22 -69 50 -73 61 -31 103 19 19 35 43 35 53 0 14 -6 10
-20 -13 -20 -33 -58 -47 -46 -18 7 18 -23 35 -61 35 -19 0 -39 -10 -56 -28
-29 -31 -34 -44 -14 -41 31 4 39 0 25 -15 -7 -8 -20 -23 -29 -34 -9 -11 -23
-22 -30 -24 -12 -4 -11 -8 1 -24 14 -18 14 -18 -2 -5 -16 12 -18 11 -18 -16 0
-37 16 -53 55 -53 35 0 81 -33 70 -49 -9 -16 6 -13 24 3 14 13 16 10 17 -34
l0 -48 -55 -12 c-100 -22 -218 -12 -395 34 -70 19 -71 19 -49 37 11 9 14 10 9
2 -4 -8 -2 -13 4 -13 7 0 14 9 17 20 5 18 8 19 22 7 30 -26 41 -29 34 -11 -5
14 -2 16 22 12 l29 -6 -25 19 c-13 10 -19 19 -14 19 6 1 1 5 -10 10 -15 6 -16
9 -4 9 9 1 24 -8 34 -19 10 -11 30 -20 44 -19 14 0 37 -3 50 -7 20 -6 23 -4
18 10 -6 14 -3 15 13 6 16 -8 20 -8 20 4 0 9 6 13 15 10 10 -4 16 3 20 23 3
15 8 35 9 43 2 8 7 24 12 34 5 14 4 17 -4 12 -7 -4 -12 -3 -12 3 0 13 -29 3
-54 -18 -14 -12 -17 -12 -11 -2 9 15 13 71 6 71 -3 0 -16 -10 -29 -22 l-25
-23 19 30 19 30 -37 -30 c-21 -17 -38 -34 -38 -38 0 -5 -5 -5 -11 -1 -6 3 -15
0 -20 -7 -7 -11 -9 -10 -9 4 0 9 -4 17 -10 17 -5 0 -10 -3 -10 -8 0 -4 -10
-12 -22 -17 -12 -6 -23 -17 -25 -25 -3 -10 1 -8 11 4 9 11 16 15 16 9 0 -6 -7
-16 -15 -23 -8 -7 -15 -21 -15 -31 0 -11 -4 -19 -9 -19 -4 0 -6 11 -4 24 4 20
1 23 -22 21 -14 -2 -31 -8 -38 -13 -24 -18 -47 -21 -60 -8 -11 12 -21 7 -60
-29 -54 -49 -63 -70 -66 -145 -1 -30 -6 -59 -11 -65 -5 -6 -7 -20 -4 -32 7
-27 -35 -41 -53 -16 -11 14 -14 13 -24 -11 -7 -14 -16 -26 -21 -26 -11 0 -10
7 7 40 13 25 13 30 1 30 -15 0 -29 27 -21 40 10 15 -16 22 -33 9 -14 -11 -15
-11 -4 1 6 8 12 21 11 29 0 11 -2 12 -6 4 -2 -7 -9 -13 -14 -13 -6 0 -7 4 -4
10 11 18 -14 11 -25 -7 -12 -18 -10 -7 5 30 4 10 3 17 -5 17 -7 0 -9 8 -4 22
6 21 5 22 -11 8 -17 -14 -18 -13 -12 2 4 12 2 15 -9 11 -8 -3 -14 -2 -13 3 3
18 -14 54 -22 48 -5 -3 -9 2 -9 11 0 15 -6 25 -38 60 -7 8 -11 19 -7 25 3 5
-2 21 -11 35 -22 34 -65 157 -60 171 3 6 0 16 -5 21 -5 5 -13 36 -18 68 -5 33
-19 110 -32 170 -20 94 -23 140 -24 315 0 230 7 304 34 340 10 13 63 48 118
76 119 61 168 93 248 167 33 30 87 71 120 92 33 21 63 42 66 47 3 6 9 9 13 9
3 -1 5 1 4 3 -2 3 12 20 30 39 18 18 29 37 25 42 -5 4 -3 5 3 2 7 -4 17 0 24
9 7 8 19 13 26 10 8 -3 13 0 11 7 -1 6 8 13 21 15 22 3 28 -6 14 -23 -4 -6 15
13 43 41 29 29 71 62 94 74 44 22 63 22 36 0 -30 -25 -14 -30 18 -6 19 15 37
26 41 26 4 0 14 7 23 15 12 12 18 13 29 4 8 -6 14 -7 14 -2 0 5 15 17 34 25
18 9 49 30 69 47 19 17 41 31 49 31 8 0 25 11 38 25 17 18 26 22 31 13 5 -8
11 -9 21 -1 17 14 48 18 70 9 10 -5 26 -1 40 8 28 20 32 20 24 1z m-596 -208
c0 -2 -10 -12 -22 -23 l-23 -19 19 23 c18 21 26 27 26 19z m-52 -46 c10 -6 9
-11 -4 -22 -14 -11 -16 -11 -10 0 5 8 3 17 -5 22 -8 5 -9 9 -4 9 6 0 16 -4 23
-9z m-1038 -501 c0 -5 -2 -10 -4 -10 -3 0 -8 5 -11 10 -3 6 -1 10 4 10 6 0 11
-4 11 -10z m-20 -14 c0 -3 -4 -8 -10 -11 -5 -3 -10 -1 -10 4 0 6 5 11 10 11 6
0 10 -2 10 -4z m-80 -59 c0 -5 -4 -5 -10 -2 -5 3 -10 14 -10 23 0 15 2 15 10
2 5 -8 10 -19 10 -23z m175 -227 c3 -5 -1 -10 -9 -10 -9 0 -16 5 -16 10 0 6 4
10 9 10 6 0 13 -4 16 -10z m40 -200 c-3 -5 -11 -10 -16 -10 -6 0 -7 5 -4 10 3
6 11 10 16 10 6 0 7 -4 4 -10z m95 -380 c0 -5 -2 -10 -4 -10 -3 0 -8 5 -11 10
-3 6 -1 10 4 10 6 0 11 -4 11 -10z m1204 -195 c3 -8 1 -15 -4 -15 -6 0 -10 7
-10 15 0 8 2 15 4 15 2 0 6 -7 10 -15z m-1001 -140 c4 -8 2 -17 -3 -20 -6 -4
-10 3 -10 14 0 25 6 27 13 6z m1772 -6 c11 -17 -1 -21 -15 -4 -8 9 -8 15 -2
15 6 0 14 -5 17 -11z m-635 -103 c0 -8 -6 -16 -14 -19 -10 -4 -12 0 -9 14 6
22 23 26 23 5z m-65 -16 c-5 -16 -3 -19 12 -14 15 5 16 4 3 -5 -28 -20 -41
-14 -28 14 13 30 22 33 13 5z m-555 -37 c8 -3 35 -7 60 -8 25 -2 90 -13 145
-25 100 -22 122 -22 313 -6 40 4 52 1 52 -10 0 -19 19 -18 26 1 4 8 10 13 14
10 5 -3 12 1 17 8 17 30 90 44 110 22 5 -4 1 -5 -7 -1 -13 7 -13 6 0 -6 20
-18 20 -116 0 -128 -8 -5 -11 -12 -8 -16 14 -13 -13 -44 -38 -44 -15 0 -34
-10 -44 -22 l-18 -23 -31 23 c-20 14 -28 17 -25 7 3 -8 14 -17 25 -20 10 -4
19 -11 19 -16 0 -6 -4 -7 -10 -4 -6 3 -7 -1 -4 -9 9 -23 -14 -20 -28 4 -11 17
-14 18 -29 4 -22 -20 -44 -9 -45 21 -2 21 1 24 12 14 12 -10 13 -9 8 5 -4 10
-1 16 7 16 9 0 10 3 2 11 -8 8 -29 7 -79 -6 -47 -12 -96 -16 -162 -13 -75 2
-96 0 -100 -11 -3 -9 0 -11 8 -6 9 5 10 2 6 -12 -8 -25 -86 -111 -86 -94 0 9
-5 9 -20 1 -22 -12 -27 -1 -7 19 10 11 9 13 -2 9 -8 -2 -30 -26 -48 -52 -18
-27 -33 -44 -33 -38 0 5 10 21 21 36 27 34 18 45 -12 17 -25 -23 -35 -26 -43
-12 -3 5 6 17 20 26 41 27 9 40 -34 14 -21 -12 -32 -15 -30 -7 3 7 16 18 29
25 28 14 77 63 63 63 -5 0 -15 -9 -22 -20 -7 -11 -17 -20 -23 -20 -6 0 -24 -9
-40 -21 -16 -11 -35 -19 -41 -17 -7 3 11 18 39 34 40 22 51 33 48 49 -2 11 -4
23 -4 28 -1 4 -8 7 -16 7 -8 0 -12 -6 -9 -14 3 -9 -4 -19 -18 -26 -19 -10 -21
-10 -10 1 6 7 12 24 12 38 0 24 -1 24 -14 5 -17 -23 -35 -10 -20 14 9 13 7 20
-5 30 -9 8 -11 11 -5 8 8 -4 11 11 9 50 -3 46 -1 55 12 50 10 -4 18 3 26 23
10 28 21 30 67 14z m1290 -117 c0 -3 -4 -8 -10 -11 -5 -3 -10 -1 -10 4 0 6 5
11 10 11 6 0 10 -2 10 -4z m-1036 -184 c-10 -15 -17 -39 -16 -54 1 -15 -2 -29
-8 -33 -16 -10 -12 -28 6 -21 8 3 13 2 10 -3 -3 -5 -17 -8 -31 -8 -19 0 -25 5
-25 21 0 12 5 27 10 32 15 15 49 75 57 99 4 12 8 15 11 7 2 -7 -4 -25 -14 -40z
m-374 28 c0 -5 -5 -10 -11 -10 -5 0 -7 5 -4 10 3 6 8 10 11 10 2 0 4 -4 4 -10z
m336 -16 c-8 -30 -37 -77 -43 -70 -5 5 38 96 45 96 2 0 1 -12 -2 -26z m164 6
c0 -5 -2 -10 -4 -10 -3 0 -8 5 -11 10 -3 6 -1 10 4 10 6 0 11 -4 11 -10z
m-219 -38 c-12 -22 -41 -48 -41 -36 0 8 40 54 47 54 2 0 -1 -8 -6 -18z m329 2
c0 -8 -5 -12 -10 -9 -6 4 -8 11 -5 16 9 14 15 11 15 -7z m-50 -41 c0 -7 4 -13
9 -13 15 0 22 -30 11 -48 -8 -14 -9 -12 -10 10 0 16 -9 33 -22 42 -12 9 -19
16 -15 16 4 0 2 10 -4 23 -12 22 -12 22 10 3 11 -11 21 -25 21 -33z m-534 25
c4 -7 3 -8 -4 -4 -7 4 -12 2 -12 -3 0 -6 -5 -11 -11 -11 -8 0 -8 5 1 15 15 18
17 18 26 3z m193 -40 c-12 -21 -13 -21 -17 -4 -2 10 2 22 9 27 20 12 22 4 8
-23z m312 -10 c13 -17 18 -28 11 -24 -8 4 -12 1 -12 -10 0 -27 -16 -4 -23 34
-8 40 -4 40 24 0z m-104 -60 c-3 -7 -5 -2 -5 12 0 14 2 19 5 13 2 -7 2 -19 0
-25z m65 -3 c3 -14 2 -25 -2 -25 -4 0 -10 11 -12 25 -3 14 -2 25 2 25 4 0 10
-11 12 -25z m494 -142 c-2 -9 -12 -23 -23 -30 -18 -12 -21 -12 -27 2 -5 13 -1
15 16 9 17 -5 20 -3 14 11 -3 9 -3 21 0 26 8 14 23 1 20 -18z m-646 -163 c0
-5 -5 -10 -11 -10 -5 0 -7 5 -4 10 3 6 8 10 11 10 2 0 4 -4 4 -10z m-130 -30
c0 -5 -4 -10 -10 -10 -5 0 -10 5 -10 10 0 6 5 10 10 10 6 0 10 -4 10 -10z
m517 4 c-3 -3 -12 -4 -19 -1 -8 3 -5 6 6 6 11 1 17 -2 13 -5z m-177 -24 c0 -5
-2 -10 -4 -10 -3 0 -8 5 -11 10 -3 6 -1 10 4 10 6 0 11 -4 11 -10z"/>
<path d="M3649 3857 c-8 -8 -37 -11 -90 -10 -53 2 -82 -1 -91 -10 -7 -7 -33
-14 -58 -16 -24 -1 -50 -7 -56 -12 -11 -9 -36 -15 -76 -18 -5 -1 -8 -6 -8 -12
0 -8 5 -7 15 1 13 11 14 10 10 -1 -16 -42 -62 -39 -79 6 -7 18 -9 17 -20 -10
-7 -16 -11 -37 -8 -45 5 -13 2 -13 -14 1 -35 29 -49 33 -25 6 17 -18 31 -25
43 -21 16 5 18 1 13 -23 -3 -15 -3 -23 0 -18 3 6 28 9 56 8 28 0 92 10 142 23
50 14 120 27 154 29 35 2 73 7 84 10 14 5 19 3 15 -4 -5 -7 3 -9 24 -5 20 4
30 3 30 -5 0 -7 8 -11 18 -10 39 4 50 -3 68 -41 19 -40 34 -52 34 -26 0 8 6
16 13 19 9 3 9 7 -1 20 -12 14 -11 19 2 33 9 9 14 21 11 28 -3 6 -8 19 -11 29
-4 9 -11 17 -16 17 -5 0 -21 12 -35 28 -14 15 -20 19 -13 10 15 -22 8 -23 -29
-3 -16 8 -31 12 -34 8 -4 -3 -18 2 -31 11 -20 13 -28 13 -37 3z m201 -107 c0
-5 -5 -10 -11 -10 -5 0 -7 5 -4 10 3 6 8 10 11 10 2 0 4 -4 4 -10z"/>
<path d="M2230 3823 c0 -7 -7 -13 -15 -13 -8 0 -15 -5 -15 -10 0 -6 -10 -8
-22 -5 -14 3 -35 -3 -53 -15 l-30 -20 36 0 c20 0 50 5 68 11 18 6 35 9 38 5 3
-3 -8 -11 -25 -17 -18 -6 -32 -15 -32 -21 0 -6 -19 -8 -45 -6 -47 3 -53 0 -33
-20 9 -9 9 -12 -1 -12 -7 0 -20 -7 -29 -16 -15 -15 -14 -16 7 -9 20 6 23 4 18
-9 -4 -9 -2 -16 3 -16 6 0 10 5 10 10 0 6 7 10 15 10 9 0 30 8 48 17 18 9 41
16 52 15 14 -2 16 0 7 6 -8 6 -1 8 20 8 18 0 47 3 64 6 19 4 80 -5 155 -23 68
-15 140 -30 159 -32 19 -2 43 -8 53 -12 9 -4 23 -5 31 -2 7 3 19 0 25 -6 8 -8
11 -6 11 7 0 9 5 14 10 11 14 -9 12 2 -6 30 -17 27 -56 55 -84 60 -10 2 -28 9
-40 15 -28 15 -54 21 -111 24 -25 2 -62 9 -82 15 -20 7 -40 10 -44 8 -5 -2
-17 -1 -28 3 -10 4 -30 1 -45 -7 -36 -18 -56 -18 -40 2 15 18 -1 20 -18 3 -10
-10 -15 -10 -22 2 -7 10 -10 11 -10 3z"/>
<path d="M3245 3760 c4 -6 11 -8 16 -5 14 9 11 15 -7 15 -8 0 -12 -5 -9 -10z"/>
<path d="M3120 3725 c7 -8 10 -15 6 -15 -4 0 0 -13 9 -30 19 -37 21 -37 28 -4
3 17 -2 32 -16 45 -24 22 -45 26 -27 4z"/>
<path d="M3470 3690 c0 -5 -13 -10 -30 -10 -66 0 -215 -78 -228 -120 -4 -12 0
-11 19 3 51 36 62 38 24 4 -36 -33 -38 -36 -17 -37 12 0 22 -5 22 -11 0 -7
-10 -9 -25 -5 -14 4 -25 2 -25 -4 0 -5 14 -10 31 -10 28 0 31 3 25 23 -6 24
15 46 71 75 21 12 21 10 16 -23 -7 -45 16 -82 60 -93 37 -10 80 6 97 37 13 25
13 78 0 86 -22 13 -8 23 19 14 43 -15 75 -53 68 -81 l-6 -23 18 24 c11 14 21
20 25 13 3 -6 2 -13 -4 -17 -22 -13 -8 -30 26 -32 27 -1 34 2 30 13 -3 8 1 14
9 14 17 0 20 16 5 25 -5 3 -7 12 -4 20 9 22 -33 73 -71 86 -19 7 -35 17 -35
22 0 5 -7 7 -15 4 -8 -4 -17 -2 -20 4 -4 5 -12 6 -18 2 -18 -11 -36 -12 -43
-2 -7 12 -24 12 -24 -1z m160 -60 c0 -5 -5 -10 -11 -10 -5 0 -7 5 -4 10 3 6 8
10 11 10 2 0 4 -4 4 -10z m-189 -63 c-13 -13 -26 -3 -16 12 3 6 11 8 17 5 6
-4 6 -10 -1 -17z"/>
<path d="M2347 3646 c-26 -7 -59 -23 -72 -36 -35 -33 -22 -38 15 -6 18 14 41
28 53 31 12 3 40 9 62 14 26 6 31 9 15 9 -14 1 -47 -5 -73 -12z"/>
<path d="M2490 3647 c54 -16 44 -22 -32 -22 -32 0 -58 -3 -58 -7 0 -5 -9 -8
-20 -8 -11 0 -39 -15 -63 -32 -24 -18 -52 -38 -62 -44 -11 -6 -15 -15 -11 -22
5 -9 14 -8 37 3 16 9 29 14 29 11 0 -2 13 8 30 24 16 15 39 30 50 33 19 5 20
2 14 -29 -5 -29 -2 -38 25 -65 28 -27 37 -31 69 -26 51 9 75 41 69 89 -3 21
-2 38 2 38 10 0 84 -51 97 -66 6 -7 15 -9 23 -4 10 6 3 15 -28 35 -22 15 -41
29 -41 31 0 5 64 -18 80 -30 8 -6 5 1 -8 16 -32 35 -125 76 -192 82 l-55 6 45
-13z m15 -98 c-10 -15 -25 -10 -19 6 4 8 10 12 15 9 5 -3 7 -10 4 -15z m-72
-4 c4 -8 2 -17 -3 -20 -6 -4 -10 3 -10 14 0 25 6 27 13 6z"/>
<path d="M3555 3470 c-3 -5 3 -10 15 -10 12 0 18 5 15 10 -3 6 -10 10 -15 10
-5 0 -12 -4 -15 -10z"/>
<path d="M3185 3218 c-4 -9 -2 -32 4 -52 6 -24 6 -34 0 -30 -19 12 -3 -96 19
-125 11 -16 25 -44 30 -62 7 -27 11 -30 17 -17 4 10 0 31 -9 49 -9 18 -16 38
-16 45 0 7 -5 14 -11 16 -13 4 -14 36 -4 94 5 29 3 49 -8 70 -13 24 -17 26
-22 12z"/>
<path d="M2805 2890 c-3 -6 -3 -20 0 -31 6 -19 4 -21 -24 -17 -21 3 -31 0 -31
-8 0 -12 39 -40 44 -32 1 2 8 15 16 31 14 29 37 36 46 14 3 -8 18 -14 34 -14
25 0 28 3 19 18 -21 40 -88 65 -104 39z"/>
<path d="M3024 2785 c-10 -8 -14 -14 -9 -15 15 0 40 18 34 24 -3 3 -14 -1 -25
-9z"/>
<path d="M2986 2631 c-3 -5 1 -14 9 -21 12 -10 15 -10 15 3 0 19 -16 31 -24
18z"/>
<path d="M2200 2619 c0 -5 5 -7 10 -4 6 3 10 8 10 11 0 2 -4 4 -10 4 -5 0 -10
-5 -10 -11z"/>
<path d="M3360 2400 c0 -5 5 -10 10 -10 6 0 10 5 10 10 0 6 -4 10 -10 10 -5 0
-10 -4 -10 -10z"/>
<path d="M2750 2209 c0 -5 5 -7 10 -4 6 3 10 8 10 11 0 2 -4 4 -10 4 -5 0 -10
-5 -10 -11z"/>
<path d="M3900 4981 c0 -6 4 -13 10 -16 6 -3 7 1 4 9 -7 18 -14 21 -14 7z"/>
<path d="M4252 3753 c-7 -13 -19 -23 -27 -23 -7 0 -17 -5 -20 -10 -4 -6 -1 -9
7 -8 7 2 12 -3 11 -9 -5 -22 14 -14 31 13 10 14 16 33 14 42 -3 14 -6 13 -16
-5z"/>
<path d="M4109 3643 c-10 -12 -11 -15 -1 -9 7 4 20 2 30 -6 15 -11 15 -11 5 3
-7 9 -10 19 -6 22 3 4 2 7 -4 7 -6 0 -17 -8 -24 -17z"/>
<path d="M4116 3545 c-9 -26 -7 -32 5 -12 6 10 9 21 6 23 -2 3 -7 -2 -11 -11z"/>
<path d="M3850 2250 c-6 -11 -8 -20 -6 -20 3 0 10 9 16 20 6 11 8 20 6 20 -3
0 -10 -9 -16 -20z"/>
<path d="M3819 2015 c-3 -3 -4 -27 -1 -54 3 -32 -1 -58 -12 -79 -9 -18 -14
-32 -10 -32 4 0 1 -7 -7 -16 -8 -10 -13 -46 -13 -100 -1 -46 -4 -84 -7 -84 -3
0 -4 -15 -3 -32 3 -30 -11 -96 -38 -191 -6 -20 -9 -39 -6 -42 6 -6 72 188 99
295 15 60 21 114 21 185 0 96 -11 163 -23 150z"/>
<path d="M2183 1860 c-20 -87 -22 -139 -8 -230 16 -109 30 -154 61 -210 14
-25 22 -36 18 -25 -4 11 -8 30 -8 42 -1 11 -4 19 -8 16 -5 -2 -8 0 -8 6 0 5 4
12 9 15 4 3 3 27 -4 53 -7 26 -10 62 -8 80 2 17 -1 49 -8 70 -6 21 -14 83 -18
138 l-6 100 -12 -55z"/>
<path d="M2286 1307 c3 -10 9 -15 12 -12 3 3 0 11 -7 18 -10 9 -11 8 -5 -6z"/>
<path d="M3911 1278 c-12 -12 -19 -24 -16 -27 3 -2 12 4 19 15 14 18 15 18 22
-11 5 -17 7 -37 5 -45 -1 -8 6 -4 15 10 10 14 22 28 26 31 8 5 -13 28 -39 43
-6 3 -21 -3 -32 -16z"/>
<path d="M1910 1170 c0 -5 5 -10 11 -10 5 0 7 5 4 10 -3 6 -8 10 -11 10 -2 0
-4 -4 -4 -10z"/>
<path d="M4095 1110 c-3 -5 1 -10 9 -10 9 0 16 5 16 10 0 6 -4 10 -9 10 -6 0
-13 -4 -16 -10z"/>
<path d="M3550 780 c0 -5 5 -10 11 -10 5 0 7 5 4 10 -3 6 -8 10 -11 10 -2 0
-4 -4 -4 -10z"/>
<path d="M4760 490 c0 -5 5 -10 10 -10 6 0 10 5 10 10 0 6 -4 10 -10 10 -5 0
-10 -4 -10 -10z"/>
<path d="M5730 399 c0 -5 5 -7 10 -4 6 3 10 8 10 11 0 2 -4 4 -10 4 -5 0 -10
-5 -10 -11z"/>
<path d="M3810 230 c0 -5 5 -10 11 -10 5 0 7 5 4 10 -3 6 -8 10 -11 10 -2 0
-4 -4 -4 -10z"/>
<path d="M5135 230 c-3 -5 -1 -10 4 -10 6 0 11 5 11 10 0 6 -2 10 -4 10 -3 0
-8 -4 -11 -10z"/>
<path d="M3900 150 c0 -5 5 -10 10 -10 6 0 10 5 10 10 0 6 -4 10 -10 10 -5 0
-10 -4 -10 -10z"/>
</g>
</svg>
